<?xml version="1.0" encoding="UTF-8"?>
<svg width="512" height="512" viewBox="0 0 512 512" xmlns="http://www.w3.org/2000/svg">
  <!-- Background circle with gradient -->
  <defs>
    <linearGradient id="bgGradient" x1="0%" y1="0%" x2="100%" y2="100%">
      <stop offset="0%" style="stop-color:#1565C0;stop-opacity:1" />
      <stop offset="100%" style="stop-color:#0D47A1;stop-opacity:1" />
    </linearGradient>
    <linearGradient id="brainGradient" x1="0%" y1="0%" x2="100%" y2="100%">
      <stop offset="0%" style="stop-color:#E91E63;stop-opacity:1" />
      <stop offset="50%" style="stop-color:#9C27B0;stop-opacity:1" />
      <stop offset="100%" style="stop-color:#673AB7;stop-opacity:1" />
    </linearGradient>
  </defs>
  
  <!-- Background circle -->
  <circle cx="256" cy="256" r="240" fill="url(#bgGradient)"/>
  
  <!-- Brain outline with memory circuits -->
  <g transform="translate(256, 256)">
    <!-- Brain shape -->
    <path d="M -80,-60 C -80,-100 -40,-120 0,-120 C 40,-120 80,-100 80,-60 C 80,-40 70,-20 60,0 C 70,20 80,40 80,60 C 80,100 40,120 0,120 C -40,120 -80,100 -80,60 C -80,40 -70,20 -60,0 C -70,-20 -80,-40 -80,-60 Z" 
          fill="url(#brainGradient)" stroke="#FFFFFF" stroke-width="6"/>
    
    <!-- Central dividing line -->
    <path d="M 0,-120 C -20,-80 20,-40 0,0 C -20,40 20,80 0,120" 
          stroke="#FFFFFF" stroke-width="4" fill="none"/>
    
    <!-- Memory circuit patterns on left hemisphere -->
    <g opacity="0.8">
      <circle cx="-40" cy="-40" r="8" fill="#FFFFFF"/>
      <circle cx="-50" cy="0" r="8" fill="#FFFFFF"/>
      <circle cx="-40" cy="40" r="8" fill="#FFFFFF"/>
      <path d="M -40,-40 L -50,0 L -40,40" stroke="#FFFFFF" stroke-width="3" fill="none"/>
      <path d="M -40,-40 L -20,-60" stroke="#FFFFFF" stroke-width="2" fill="none"/>
      <path d="M -50,0 L -70,0" stroke="#FFFFFF" stroke-width="2" fill="none"/>
      <path d="M -40,40 L -20,60" stroke="#FFFFFF" stroke-width="2" fill="none"/>
    </g>
    
    <!-- Memory circuit patterns on right hemisphere -->
    <g opacity="0.8">
      <circle cx="40" cy="-40" r="8" fill="#FFFFFF"/>
      <circle cx="50" cy="0" r="8" fill="#FFFFFF"/>
      <circle cx="40" cy="40" r="8" fill="#FFFFFF"/>
      <path d="M 40,-40 L 50,0 L 40,40" stroke="#FFFFFF" stroke-width="3" fill="none"/>
      <path d="M 40,-40 L 20,-60" stroke="#FFFFFF" stroke-width="2" fill="none"/>
      <path d="M 50,0 L 70,0" stroke="#FFFFFF" stroke-width="2" fill="none"/>
      <path d="M 40,40 L 20,60" stroke="#FFFFFF" stroke-width="2" fill="none"/>
    </g>
    
    <!-- Glowing effect dots representing memories -->
    <circle cx="-30" cy="-20" r="4" fill="#FFD700" opacity="0.9"/>
    <circle cx="30" cy="-20" r="4" fill="#FFD700" opacity="0.9"/>
    <circle cx="0" cy="20" r="4" fill="#FFD700" opacity="0.9"/>
    <circle cx="-25" cy="30" r="3" fill="#FFD700" opacity="0.7"/>
    <circle cx="25" cy="30" r="3" fill="#FFD700" opacity="0.7"/>
    
    <!-- Flashcard hint in bottom corner -->
    <g transform="translate(100, 100)">
      <rect x="-30" y="-20" width="60" height="40" rx="4" fill="#FFFFFF" stroke="#333333" stroke-width="2" opacity="0.9"/>
      <line x1="-20" y1="-10" x2="20" y2="-10" stroke="#333333" stroke-width="1" opacity="0.5"/>
      <line x1="-20" y1="0" x2="20" y2="0" stroke="#333333" stroke-width="1" opacity="0.5"/>
      <line x1="-20" y1="10" x2="20" y2="10" stroke="#333333" stroke-width="1" opacity="0.5"/>
    </g>
  </g>
</svg>